<?xml version="1.0" encoding="UTF-8" standalone="no"?>
<svg
   viewBox="0 0 1000 280"
   version="1.1"
   id="svg15"
   xmlns="http://www.w3.org/2000/svg"
   xmlns:svg="http://www.w3.org/2000/svg">
  <!-- Podcast Data -->
  <!-- Arrow 1 -->
  <!-- JSON API -->
  <!-- CSV Export -->
  <!-- MCP Integration -->
  <!-- Arrow 2 -->
  <!-- Custom Database -->
  <!-- Claude/ChatGPT -->
  <!-- Jupyter Notebook -->
  <!-- Custom Tools -->
  <!-- Arrow 3 -->
  <!-- Insights -->
  <rect
     x="105"
     y="100"
     width="120"
     height="80"
     rx="12"
     fill="#10b981"
     stroke="#059669"
     stroke-width="1"
     id="rect1" />
  <path
     d="m 142.14216,135 h 1.81222 v -2.77902 h 1.52344 c 1.97126,0 3.11802,-1.17606 3.11802,-2.88783 0,-1.70341 -1.12584,-2.90458 -3.07199,-2.90458 h -3.38169 z m 1.81222,-4.23131 v -2.85853 h 1.2221 c 1.04631,0 1.55273,0.56919 1.55273,1.42299 0,0.84961 -0.50642,1.43554 -1.54436,1.43554 z m 8.58398,4.35687 c 1.95034,0 3.16407,-1.3351 3.16407,-3.31473 0,-1.99219 -1.21373,-3.32311 -3.16407,-3.32311 -1.95033,0 -3.16406,1.33092 -3.16406,3.32311 0,1.97963 1.21373,3.31473 3.16406,3.31473 z m 0.008,-1.38114 c -0.89983,0 -1.36021,-0.8245 -1.36021,-1.94615 0,-1.12165 0.46038,-1.95033 1.36021,-1.95033 0.8831,0 1.34348,0.82868 1.34348,1.95033 0,1.12165 -0.46038,1.94615 -1.34348,1.94615 z m 6.68806,1.36021 c 1.03794,0 1.57784,-0.59849 1.82477,-1.13421 h 0.0753 V 135 h 1.75781 v -8.57143 h -1.77874 v 3.22266 h -0.0544 c -0.23856,-0.52316 -0.75334,-1.16351 -1.82896,-1.16351 -1.41043,0 -2.60323,1.09654 -2.60323,3.30636 0,2.15123 1.14257,3.31055 2.60742,3.31055 z m 0.56501,-1.4188 c -0.87472,0 -1.35184,-0.77846 -1.35184,-1.90012 0,-1.11328 0.46875,-1.87918 1.35184,-1.87918 0.86635,0 1.35184,0.73242 1.35184,1.87918 0,1.14677 -0.49386,1.90012 -1.35184,1.90012 z m 7.45814,1.43973 c 1.71177,0 2.78739,-1.00447 2.87109,-2.48187 h -1.68247 c -0.10464,0.68639 -0.55664,1.07143 -1.16769,1.07143 -0.83287,0 -1.37277,-0.69894 -1.37277,-1.92941 0,-1.21372 0.54408,-1.90848 1.37277,-1.90848 0.6529,0 1.07143,0.43108 1.16769,1.07143 h 1.68247 c -0.0753,-1.48577 -1.20117,-2.46094 -2.87946,-2.46094 -1.95033,0 -3.15569,1.35184 -3.15569,3.32311 0,1.95452 1.18443,3.31473 3.16406,3.31473 z m 5.85101,-0.004 c 0.95006,0 1.56529,-0.41434 1.87919,-1.01283 h 0.0502 V 135 h 1.69085 v -4.33594 c 0,-1.53181 -1.29743,-2.17634 -2.7288,-2.17634 -1.54018,0 -2.55301,0.73661 -2.79994,1.90849 l 1.64899,0.13392 c 0.12138,-0.42689 0.50224,-0.74079 1.14258,-0.74079 0.60687,0 0.95424,0.30553 0.95424,0.83287 v 0.0251 c 0,0.41434 -0.43945,0.46875 -1.55692,0.57757 -1.27232,0.11719 -2.4149,0.54408 -2.4149,1.97963 0,1.27232 0.90821,1.91685 2.13449,1.91685 z m 0.5106,-1.23047 c -0.54827,0 -0.94168,-0.2553 -0.94168,-0.74497 0,-0.50224 0.41434,-0.74917 1.04213,-0.83706 0.38923,-0.0544 1.02539,-0.14648 1.23884,-0.28878 v 0.6822 c 0,0.67383 -0.55664,1.18861 -1.33929,1.18861 z m 9.84375,-3.48632 c -0.15904,-1.18443 -1.11328,-1.91686 -2.73716,-1.91686 -1.64481,0 -2.7288,0.76172 -2.72461,2.00056 -0.004,0.96261 0.60268,1.58622 1.85826,1.83733 l 1.11328,0.22182 c 0.56082,0.11301 0.81613,0.31808 0.8245,0.64035 -0.008,0.38086 -0.42272,0.6529 -1.04632,0.6529 -0.63616,0 -1.05887,-0.27204 -1.16769,-0.7952 l -1.75363,0.0921 c 0.16741,1.23046 1.21373,1.988 2.91713,1.988 1.66574,0 2.85854,-0.84961 2.86273,-2.11775 -0.004,-0.92913 -0.61105,-1.48577 -1.85826,-1.74107 l -1.16351,-0.23437 c -0.59849,-0.12975 -0.82031,-0.33483 -0.81612,-0.64454 -0.004,-0.38504 0.43108,-0.63616 0.98353,-0.63616 0.61942,0 0.98773,0.33901 1.07562,0.75335 z m 4.6917,-1.83315 h -1.20955 v -1.54018 h -1.78292 v 1.54018 h -0.87891 v 1.33928 h 0.87891 v 3.34822 c -0.008,1.25976 0.84961,1.88337 2.14286,1.82896 0.46038,-0.0167 0.78683,-0.10882 0.96679,-0.16741 l -0.28041,-1.32673 c -0.0879,0.0167 -0.27623,0.0586 -0.44364,0.0586 -0.35575,0 -0.60268,-0.13392 -0.60268,-0.62779 v -3.11384 h 1.20955 z"
     id="text1"
     style="font-weight:bold;font-size:11.7857px;font-family:Inter;-inkscape-font-specification:'Inter, Bold';text-anchor:middle;fill:#ffffff"
     aria-label="Podcast" />
  <path
     d="m 151.63645,155 c 2.61161,0 4.19364,-1.61551 4.19364,-4.29408 0,-2.67021 -1.58203,-4.27735 -4.16853,-4.27735 h -3.06362 V 155 Z m -1.22628,-1.55273 v -5.46596 h 1.15513 c 1.60714,0 2.45675,0.82031 2.45675,2.72461 0,1.91266 -0.84961,2.74135 -2.46094,2.74135 z m 8.55886,1.6741 c 0.95006,0 1.56529,-0.41434 1.87919,-1.01283 h 0.0502 V 155 h 1.69085 v -4.33594 c 0,-1.53181 -1.29744,-2.17634 -2.7288,-2.17634 -1.54018,0 -2.55301,0.73661 -2.79994,1.90849 l 1.64899,0.13392 c 0.12138,-0.42689 0.50224,-0.74079 1.14258,-0.74079 0.60687,0 0.95424,0.30553 0.95424,0.83287 v 0.0251 c 0,0.41434 -0.43945,0.46875 -1.55692,0.57757 -1.27232,0.11719 -2.4149,0.54408 -2.4149,1.97963 0,1.27232 0.90821,1.91685 2.13449,1.91685 z m 0.5106,-1.23047 c -0.54827,0 -0.94168,-0.2553 -0.94168,-0.74497 0,-0.50224 0.41434,-0.74917 1.04213,-0.83706 0.38923,-0.0544 1.02539,-0.14648 1.23884,-0.28878 v 0.6822 c 0,0.67383 -0.55664,1.18861 -1.33929,1.18861 z m 7.91434,-5.31947 h -1.20954 v -1.54018 h -1.78292 v 1.54018 h -0.87891 v 1.33928 h 0.87891 v 3.34822 c -0.008,1.25976 0.84961,1.88337 2.14285,1.82896 0.46038,-0.0167 0.78683,-0.10882 0.9668,-0.16741 l -0.28041,-1.32673 c -0.0879,0.0167 -0.27623,0.0586 -0.44364,0.0586 -0.35575,0 -0.60268,-0.13392 -0.60268,-0.62779 v -3.11384 h 1.20954 z m 4.02205,6.55413 c 1.5904,0 2.66183,-0.77428 2.91294,-1.96708 l -1.64899,-0.10881 c -0.17997,0.48967 -0.64035,0.74497 -1.23466,0.74497 -0.89146,0 -1.45647,-0.59012 -1.45647,-1.54855 v -0.004 h 4.37779 v -0.48968 c 0,-2.18471 -1.32255,-3.26451 -3.02176,-3.26451 -1.89175,0 -3.11803,1.34347 -3.11803,3.32729 0,2.03823 1.20954,3.31055 3.18918,3.31055 z m -1.42718,-3.98856 c 0.0377,-0.73242 0.59431,-1.31836 1.38532,-1.31836 0.77428,0 1.30999,0.55245 1.31418,1.31836 z m 7.32422,0.14648 c 0.004,-0.82868 0.49805,-1.31417 1.21791,-1.31417 0.71568,0 1.14676,0.46875 1.14258,1.25558 V 155 h 1.78292 v -4.09319 c 0,-1.49833 -0.8789,-2.41909 -2.21819,-2.41909 -0.95424,0 -1.64481,0.46875 -1.93359,1.21792 h -0.0753 v -1.13421 h -1.69922 V 155 h 1.78293 z"
     id="text2"
     style="font-weight:bold;font-size:11.7857px;font-family:Inter;-inkscape-font-specification:'Inter, Bold';text-anchor:middle;fill:#ffffff"
     aria-label="Daten" />
  <path
     d="m 235,140 q 20,0 40,0"
     stroke="#9ca3af"
     stroke-width="2"
     fill="none"
     marker-end="url(#arrowhead)"
     id="path2" />
  <rect
     x="285"
     y="40"
     width="100"
     height="60"
     rx="8"
     fill="#3b82f6"
     stroke="#2563eb"
     stroke-width="1"
     id="rect2" />
  <path
     d="m 311.77595,66.428572 v 5.976562 c -0.004,0.824498 -0.37249,1.259766 -1.04214,1.259766 -0.63197,0 -1.04213,-0.393416 -1.05468,-1.075614 h -1.80385 c -0.008,1.711774 1.21372,2.527901 2.76646,2.527901 1.73688,0 2.92132,-1.050502 2.9255,-2.712053 v -5.976562 z m 7.93527,2.465122 h 1.73688 c -0.0251,-1.527622 -1.28069,-2.58231 -3.18917,-2.58231 -1.87919,0 -3.25614,1.037946 -3.24777,2.594866 -0.004,1.263951 0.88728,1.988002 2.33538,2.33538 l 0.93332,0.234375 c 0.93331,0.226004 1.45228,0.493861 1.45647,1.071428 -0.004,0.62779 -0.59849,1.054688 -1.51925,1.054688 -0.94169,0 -1.6197,-0.435268 -1.6783,-1.293248 h -1.75362 c 0.046,1.854073 1.37277,2.8125 3.45284,2.8125 2.09264,0 3.32311,-1.000279 3.32729,-2.569755 -0.004,-1.427176 -1.0798,-2.184709 -2.56975,-2.519531 l -0.77009,-0.184152 c -0.74498,-0.171596 -1.36858,-0.447823 -1.35603,-1.063058 0,-0.552455 0.48968,-0.958426 1.37695,-0.958426 0.86635,0 1.39788,0.393415 1.46485,1.067243 z m 10.94447,1.820592 c 0,-2.80413 -1.74108,-4.402902 -4.01368,-4.402902 -2.28515,0 -4.01367,1.598772 -4.01367,4.402902 0,2.791573 1.72852,4.402901 4.01367,4.402901 2.2726,0 4.01368,-1.598772 4.01368,-4.402901 z m -1.83734,0 c 0,1.816406 -0.86216,2.799944 -2.17634,2.799944 -1.31835,0 -2.17633,-0.983538 -2.17633,-2.799944 0,-1.816406 0.85798,-2.799944 2.17633,-2.799944 1.31418,0 2.17634,0.983538 2.17634,2.799944 z m 10.34598,-4.285714 h -1.80385 v 5.390624 h -0.0753 l -3.69977,-5.390624 h -1.59041 V 75 h 1.81223 v -5.39481 h 0.0628 L 337.59904,75 h 1.56529 z M 344.86885,75 l 0.63616,-1.95452 h 3.09291 L 349.23408,75 h 1.94196 l -2.95479,-8.571428 h -2.33538 L 342.92688,75 Z m 1.09654,-3.369141 1.05468,-3.243582 h 0.067 l 1.05469,3.243582 z M 352.20562,75 h 1.81222 v -2.779018 h 1.52344 c 1.97126,0 3.11802,-1.17606 3.11802,-2.887835 0,-1.703404 -1.12583,-2.904575 -3.07198,-2.904575 h -3.3817 z m 1.81222,-4.231306 v -2.858538 h 1.2221 c 1.04632,0 1.55273,0.569197 1.55273,1.422991 0,0.84961 -0.50641,1.435547 -1.54436,1.435547 z m 7.63394,-4.340122 h -1.81222 V 75 h 1.81222 z"
     id="text3"
     style="font-weight:bold;font-size:11.7857px;font-family:Inter;-inkscape-font-specification:'Inter, Bold';text-anchor:middle;fill:#ffffff"
     aria-label="JSON API" />
  <rect
     x="285"
     y="110"
     width="100"
     height="60"
     rx="8"
     fill="#0ea5e9"
     stroke="#0284c7"
     stroke-width="1"
     id="rect3" />
  <path
     d="m 310.04952,139.42941 c -0.23856,-1.97963 -1.73688,-3.11803 -3.7207,-3.11803 -2.26423,0 -3.99275,1.59878 -3.99275,4.40291 0,2.79575 1.69922,4.4029 3.99275,4.4029 2.19726,0 3.52399,-1.46066 3.7207,-3.03851 l -1.83315,-0.008 c -0.17159,0.91658 -0.89146,1.44392 -1.85825,1.44392 -1.30162,0 -2.18471,-0.9668 -2.18471,-2.79994 0,-1.78293 0.87053,-2.79995 2.19726,-2.79995 0.99191,0 1.70759,0.57338 1.8457,1.51507 z m 5.95145,-0.53572 h 1.73689 c -0.0251,-1.52762 -1.2807,-2.58231 -3.18918,-2.58231 -1.87918,0 -3.25614,1.03795 -3.24777,2.59487 -0.004,1.26395 0.88728,1.988 2.33538,2.33538 l 0.93332,0.23437 c 0.93331,0.22601 1.45229,0.49387 1.45647,1.07143 -0.004,0.62779 -0.59849,1.05469 -1.51925,1.05469 -0.94169,0 -1.6197,-0.43527 -1.67829,-1.29325 h -1.75363 c 0.046,1.85408 1.37277,2.8125 3.45285,2.8125 2.09263,0 3.3231,-1.00028 3.32728,-2.56975 -0.004,-1.42718 -1.07979,-2.18471 -2.56975,-2.51953 l -0.77009,-0.18415 c -0.74498,-0.1716 -1.36858,-0.44783 -1.35603,-1.06306 0,-0.55246 0.48968,-0.95843 1.37696,-0.95843 0.86635,0 1.39788,0.39342 1.46484,1.06724 z m 4.61635,-2.46512 H 318.6042 L 321.56319,145 h 2.33538 l 2.95479,-8.57143 h -2.00892 l -2.0759,6.51228 h -0.0795 z M 330.61593,145 h 5.79241 v -1.49414 h -3.98019 v -2.0466 h 3.66629 v -1.49414 h -3.66629 v -2.04241 h 3.96345 v -1.49414 h -5.77567 z m 8.67606,-6.42857 h -1.84151 l 1.84151,3.21428 L 337.38351,145 h 1.84152 l 1.24721,-2.22238 1.26814,2.22238 h 1.82059 l -1.91267,-3.21429 1.86244,-3.21428 h -1.82896 l -1.20954,2.24749 z m 5.27345,8.83928 h 1.78292 v -3.44029 h 0.0544 c 0.24693,0.53572 0.78683,1.13421 1.82478,1.13421 1.46484,0 2.60742,-1.15932 2.60742,-3.31055 0,-2.20982 -1.1928,-3.30636 -2.60324,-3.30636 -1.07561,0 -1.5904,0.64035 -1.82896,1.16351 h -0.0795 v -1.0798 h -1.75781 z m 1.74525,-5.625 c 0,-1.14676 0.48549,-1.87918 1.35184,-1.87918 0.8831,0 1.35185,0.7659 1.35185,1.87918 0,1.12166 -0.47713,1.90012 -1.35185,1.90012 -0.85798,0 -1.35184,-0.75335 -1.35184,-1.90012 z m 8.61329,3.33985 c 1.95033,0 3.16406,-1.3351 3.16406,-3.31473 0,-1.99219 -1.21373,-3.32311 -3.16406,-3.32311 -1.95034,0 -3.16406,1.33092 -3.16406,3.32311 0,1.97963 1.21372,3.31473 3.16406,3.31473 z m 0.008,-1.38114 c -0.89983,0 -1.36021,-0.8245 -1.36021,-1.94615 0,-1.12165 0.46038,-1.95033 1.36021,-1.95033 0.88309,0 1.34347,0.82868 1.34347,1.95033 0,1.12165 -0.46038,1.94615 -1.34347,1.94615 z M 359.25154,145 h 1.78292 v -3.637 c 0,-0.79101 0.57757,-1.3351 1.3644,-1.3351 0.24693,0 0.58594,0.0419 0.75335,0.0963 v -1.58203 c -0.15904,-0.0377 -0.38086,-0.0628 -0.56083,-0.0628 -0.71986,0 -1.30999,0.41853 -1.54436,1.21373 h -0.067 v -1.12165 h -1.72852 z m 8.55887,-6.42857 h -1.20955 v -1.54018 h -1.78292 v 1.54018 h -0.87891 v 1.33928 h 0.87891 v 3.34822 c -0.008,1.25976 0.84961,1.88337 2.14286,1.82896 0.46038,-0.0167 0.78683,-0.10882 0.96679,-0.16741 l -0.28041,-1.32673 c -0.0879,0.0167 -0.27623,0.0586 -0.44364,0.0586 -0.35574,0 -0.60268,-0.13392 -0.60268,-0.62779 v -3.11384 h 1.20955 z"
     id="text4"
     style="font-weight:bold;font-size:11.7857px;font-family:Inter;-inkscape-font-specification:'Inter, Bold';text-anchor:middle;fill:#ffffff"
     aria-label="CSV Export" />
  <rect
     x="285"
     y="180"
     width="100"
     height="60"
     rx="8"
     fill="#06b6d4"
     stroke="#0891b2"
     stroke-width="1"
     id="rect4" />
  <path
     d="M 322.10519,201.42857 V 210 h 1.75781 v -5.59989 h 0.0711 l 2.21819,5.55804 h 1.19699 l 2.21819,-5.53711 h 0.0711 V 210 h 1.75782 v -8.57143 h -2.23494 l -2.36049,5.75893 h -0.10045 l -2.36049,-5.75893 z m 18.34402,3.00084 c -0.23856,-1.97963 -1.73688,-3.11803 -3.7207,-3.11803 -2.26423,0 -3.99275,1.59878 -3.99275,4.40291 0,2.79575 1.69922,4.4029 3.99275,4.4029 2.19726,0 3.52399,-1.46066 3.7207,-3.03851 l -1.83315,-0.008 c -0.17159,0.91658 -0.89146,1.44392 -1.85825,1.44392 -1.30162,0 -2.18471,-0.9668 -2.18471,-2.79994 0,-1.78293 0.87053,-2.79995 2.19726,-2.79995 0.99191,0 1.70759,0.57338 1.8457,1.51507 z M 341.75083,210 h 1.81222 v -2.77902 h 1.52344 c 1.97126,0 3.11802,-1.17606 3.11802,-2.88783 0,-1.70341 -1.12584,-2.90458 -3.07199,-2.90458 h -3.38169 z m 1.81222,-4.23131 v -2.85853 h 1.2221 c 1.04631,0 1.55273,0.56919 1.55273,1.42299 0,0.84961 -0.50642,1.43554 -1.54436,1.43554 z"
     id="text5"
     style="font-weight:bold;font-size:11.7857px;font-family:Inter;-inkscape-font-specification:'Inter, Bold';text-anchor:middle;fill:#ffffff"
     aria-label="MCP" />
  <path
     d="m 305.82033,216.42857 h -1.81222 V 225 h 1.81222 z m 3.24359,4.85491 c 0.004,-0.82868 0.49805,-1.31417 1.21791,-1.31417 0.71568,0 1.14677,0.46875 1.14258,1.25558 V 225 h 1.78293 v -4.09319 c 0,-1.49833 -0.87891,-2.41909 -2.2182,-2.41909 -0.95424,0 -1.64481,0.46875 -1.93359,1.21792 h -0.0753 v -1.13421 H 307.281 V 225 h 1.78292 z m 8.96484,-2.71205 h -1.20955 v -1.54018 h -1.78292 v 1.54018 h -0.87891 v 1.33928 h 0.87891 v 3.34822 c -0.008,1.25976 0.84961,1.88337 2.14286,1.82896 0.46038,-0.0167 0.78683,-0.10882 0.96679,-0.16741 l -0.28041,-1.32673 c -0.0879,0.0167 -0.27623,0.0586 -0.44364,0.0586 -0.35575,0 -0.60268,-0.13392 -0.60268,-0.62779 v -3.11384 h 1.20955 z m 4.02204,6.55413 c 1.5904,0 2.66183,-0.77428 2.91294,-1.96708 l -1.64899,-0.10881 c -0.17997,0.48967 -0.64035,0.74497 -1.23466,0.74497 -0.89146,0 -1.45647,-0.59012 -1.45647,-1.54855 v -0.004 h 4.37779 v -0.48968 c 0,-2.18471 -1.32254,-3.26451 -3.02176,-3.26451 -1.89174,0 -3.11803,1.34347 -3.11803,3.32729 0,2.03823 1.20955,3.31055 3.18918,3.31055 z m -1.42718,-3.98856 c 0.0377,-0.73242 0.59431,-1.31836 1.38533,-1.31836 0.77427,0 1.30998,0.55245 1.31417,1.31836 z m 8.4375,6.40764 c 1.83733,0 3.14314,-0.83705 3.14314,-2.48186 v -6.49135 h -1.77037 v 1.0798 h -0.067 c -0.23856,-0.52316 -0.76172,-1.16351 -1.83734,-1.16351 -1.41043,0 -2.60323,1.09654 -2.60323,3.28544 0,2.13867 1.15932,3.13476 2.60742,3.13476 1.02539,0 1.59877,-0.51478 1.83315,-1.04631 h 0.0753 v 1.17606 c 0,0.88309 -0.56501,1.22628 -1.33929,1.22628 -0.78683,0 -1.18443,-0.34319 -1.33091,-0.73242 l -1.649,0.22182 c 0.21345,1.01283 1.20536,1.79129 2.93806,1.79129 z m 0.0377,-3.976 c -0.87472,0 -1.35184,-0.69476 -1.35184,-1.80385 0,-1.09236 0.46875,-1.85826 1.35184,-1.85826 0.86635,0 1.35184,0.73242 1.35184,1.85826 0,1.13421 -0.49386,1.80385 -1.35184,1.80385 z M 333.62724,225 h 1.78293 v -3.637 c 0,-0.79101 0.57757,-1.3351 1.3644,-1.3351 0.24693,0 0.58593,0.0419 0.75334,0.0963 v -1.58203 c -0.15904,-0.0377 -0.38086,-0.0628 -0.56082,-0.0628 -0.71987,0 -1.30999,0.41853 -1.54437,1.21373 h -0.067 v -1.12165 h -1.72852 z m 6.47042,0.12137 c 0.95006,0 1.56529,-0.41434 1.87919,-1.01283 h 0.0502 V 225 h 1.69085 v -4.33594 c 0,-1.53181 -1.29744,-2.17634 -2.7288,-2.17634 -1.54018,0 -2.55301,0.73661 -2.79994,1.90849 l 1.64899,0.13392 c 0.12138,-0.42689 0.50224,-0.74079 1.14258,-0.74079 0.60687,0 0.95424,0.30553 0.95424,0.83287 v 0.0251 c 0,0.41434 -0.43945,0.46875 -1.55692,0.57757 -1.27232,0.11719 -2.4149,0.54408 -2.4149,1.97963 0,1.27232 0.90821,1.91685 2.13449,1.91685 z m 0.5106,-1.23047 c -0.54827,0 -0.94168,-0.2553 -0.94168,-0.74497 0,-0.50224 0.41434,-0.74917 1.04213,-0.83706 0.38923,-0.0544 1.02539,-0.14648 1.23884,-0.28878 v 0.6822 c 0,0.67383 -0.55664,1.18861 -1.33929,1.18861 z m 7.91434,-5.31947 h -1.20954 v -1.54018 h -1.78293 v 1.54018 h -0.8789 v 1.33928 h 0.8789 v 3.34822 c -0.008,1.25976 0.84961,1.88337 2.14286,1.82896 0.46038,-0.0167 0.78683,-0.10882 0.9668,-0.16741 l -0.28042,-1.32673 c -0.0879,0.0167 -0.27622,0.0586 -0.44364,0.0586 -0.35574,0 -0.60267,-0.13392 -0.60267,-0.62779 v -3.11384 h 1.20954 z M 349.68192,225 h 1.78292 v -6.42857 h -1.78292 z m 0.89565,-7.25725 c 0.53153,0 0.96679,-0.40598 0.96679,-0.90402 0,-0.49386 -0.43526,-0.89983 -0.96679,-0.89983 -0.52735,0 -0.96261,0.40597 -0.96261,0.89983 0,0.49804 0.43526,0.90402 0.96261,0.90402 z m 5.21484,7.38281 c 1.95033,0 3.16406,-1.3351 3.16406,-3.31473 0,-1.99219 -1.21373,-3.32311 -3.16406,-3.32311 -1.95034,0 -3.16407,1.33092 -3.16407,3.32311 0,1.97963 1.21373,3.31473 3.16407,3.31473 z m 0.008,-1.38114 c -0.89984,0 -1.36022,-0.8245 -1.36022,-1.94615 0,-1.12165 0.46038,-1.95033 1.36022,-1.95033 0.88309,0 1.34347,0.82868 1.34347,1.95033 0,1.12165 -0.46038,1.94615 -1.34347,1.94615 z m 6.10211,-2.46094 c 0.004,-0.82868 0.49805,-1.31417 1.21792,-1.31417 0.71568,0 1.14676,0.46875 1.14257,1.25558 V 225 h 1.78293 v -4.09319 c 0,-1.49833 -0.87891,-2.41909 -2.21819,-2.41909 -0.95424,0 -1.64481,0.46875 -1.9336,1.21792 h -0.0753 v -1.13421 h -1.69922 V 225 h 1.78292 z"
     id="text6"
     style="font-weight:bold;font-size:11.7857px;font-family:Inter;-inkscape-font-specification:'Inter, Bold';text-anchor:middle;fill:#ffffff"
     aria-label="Integration" />
  <path
     d="m 395,140 q 30,0 60,0"
     stroke="#9ca3af"
     stroke-width="2"
     fill="none"
     marker-end="url(#arrowhead)"
     id="path6" />
  <rect
     x="465"
     y="75"
     width="110"
     height="60"
     rx="8"
     fill="#8b5cf6"
     stroke="#7c3aed"
     stroke-width="1"
     id="rect6" />
  <path
     d="m 505.655,99.429409 c -0.23856,-1.979632 -1.73689,-3.118025 -3.72071,-3.118025 -2.26423,0 -3.99274,1.598772 -3.99274,4.402906 0,2.79575 1.69922,4.4029 3.99274,4.4029 2.19727,0 3.524,-1.46066 3.72071,-3.03851 l -1.83315,-0.008 c -0.1716,0.91658 -0.89146,1.44392 -1.85826,1.44392 -1.30162,0 -2.18471,-0.9668 -2.18471,-2.79994 0,-1.782928 0.87054,-2.799948 2.19727,-2.799948 0.9919,0 1.70759,0.573381 1.8457,1.515067 z m 5.39062,2.833421 c 0.004,0.86217 -0.58594,1.31418 -1.22628,1.31418 -0.67383,0 -1.1091,-0.47294 -1.11329,-1.23047 v -3.775111 h -1.78292 v 4.093191 c 0.004,1.50251 0.88309,2.41909 2.17634,2.41909 0.9668,0 1.66155,-0.49805 1.95033,-1.2514 h 0.067 V 105 h 1.71177 v -6.428571 h -1.78292 z m 8.55468,-1.85825 c -0.15904,-1.184435 -1.11328,-1.916857 -2.73717,-1.916857 -1.64481,0 -2.72879,0.761719 -2.72461,2.000557 -0.004,0.96261 0.60268,1.58622 1.85826,1.83733 l 1.11328,0.22182 c 0.56083,0.11301 0.81613,0.31808 0.8245,0.64035 -0.008,0.38086 -0.42271,0.6529 -1.04631,0.6529 -0.63617,0 -1.05888,-0.27204 -1.16769,-0.7952 l -1.75363,0.0921 c 0.16741,1.23046 1.21373,1.988 2.91713,1.988 1.66574,0 2.85854,-0.84961 2.86272,-2.11775 -0.004,-0.92913 -0.61105,-1.48577 -1.85826,-1.74107 l -1.1635,-0.23437 c -0.59849,-0.12975 -0.82031,-0.33483 -0.81613,-0.64454 -0.004,-0.38504 0.43109,-0.636156 0.98354,-0.636156 0.61942,0 0.98772,0.339006 1.07561,0.753346 z m 4.69169,-1.833151 h -1.20954 V 97.03125 h -1.78292 v 1.540179 h -0.87891 v 1.339285 h 0.87891 v 3.348216 c -0.008,1.25976 0.8496,1.88337 2.14285,1.82896 0.46038,-0.0167 0.78683,-0.10882 0.9668,-0.16741 l -0.28041,-1.32673 c -0.0879,0.0167 -0.27623,0.0586 -0.44364,0.0586 -0.35575,0 -0.60268,-0.13392 -0.60268,-0.62779 v -3.113836 h 1.20954 z m 3.99693,6.554131 c 1.95034,0 3.16406,-1.3351 3.16406,-3.31473 0,-1.992192 -1.21372,-3.323107 -3.16406,-3.323107 -1.95033,0 -3.16406,1.330915 -3.16406,3.323107 0,1.97963 1.21373,3.31473 3.16406,3.31473 z m 0.008,-1.38114 c -0.89983,0 -1.36021,-0.8245 -1.36021,-1.94615 0,-1.12165 0.46038,-1.950335 1.36021,-1.950335 0.88309,0 1.34347,0.828685 1.34347,1.950335 0,1.12165 -0.46038,1.94615 -1.34347,1.94615 z M 532.61649,105 h 1.78292 v -3.85882 c 0,-0.71149 0.45201,-1.184428 1.04632,-1.184428 0.58593,0 0.97935,0.401788 0.97935,1.033758 V 105 h 1.72852 v -3.92578 c 0,-0.66546 0.38085,-1.117468 1.02957,-1.117468 0.5692,0 0.9961,0.355748 0.9961,1.071428 V 105 h 1.77873 v -4.32338 c 0,-1.393696 -0.82868,-2.188897 -2.02567,-2.188897 -0.94168,0 -1.6741,0.481306 -1.93777,1.217913 h -0.067 c -0.20508,-0.744977 -0.86216,-1.217913 -1.74526,-1.217913 -0.86635,0 -1.52343,0.46038 -1.79129,1.217913 h -0.0753 v -1.134207 h -1.69921 z"
     id="text7"
     style="font-weight:bold;font-size:11.7857px;font-family:Inter;-inkscape-font-specification:'Inter, Bold';text-anchor:middle;fill:#ffffff"
     aria-label="Custom" />
  <path
     d="m 496.37417,120 c 2.61161,0 4.19364,-1.61551 4.19364,-4.29408 0,-2.67021 -1.58203,-4.27735 -4.16853,-4.27735 h -3.06362 V 120 Z m -1.22629,-1.55273 v -5.46596 h 1.15514 c 1.60714,0 2.45675,0.82031 2.45675,2.72461 0,1.91266 -0.84961,2.74135 -2.46094,2.74135 z m 8.55887,1.6741 c 0.95006,0 1.56529,-0.41434 1.87918,-1.01283 h 0.0502 V 120 h 1.69085 v -4.33594 c 0,-1.53181 -1.29744,-2.17634 -2.7288,-2.17634 -1.54018,0 -2.55301,0.73661 -2.79994,1.90849 l 1.64899,0.13392 c 0.12138,-0.42689 0.50224,-0.74079 1.14258,-0.74079 0.60687,0 0.95424,0.30553 0.95424,0.83287 v 0.0251 c 0,0.41434 -0.43945,0.46875 -1.55692,0.57757 -1.27232,0.11719 -2.4149,0.54408 -2.4149,1.97963 0,1.27232 0.90821,1.91685 2.13449,1.91685 z m 0.5106,-1.23047 c -0.54827,0 -0.94168,-0.2553 -0.94168,-0.74497 0,-0.50224 0.41434,-0.74917 1.04213,-0.83706 0.38923,-0.0544 1.02539,-0.14648 1.23884,-0.28878 v 0.6822 c 0,0.67383 -0.55664,1.18861 -1.33929,1.18861 z m 7.91434,-5.31947 h -1.20954 v -1.54018 h -1.78292 v 1.54018 h -0.87891 v 1.33928 h 0.87891 v 3.34822 c -0.008,1.25976 0.84961,1.88337 2.14285,1.82896 0.46038,-0.0167 0.78683,-0.10882 0.9668,-0.16741 l -0.28041,-1.32673 c -0.0879,0.0167 -0.27623,0.0586 -0.44364,0.0586 -0.35575,0 -0.60268,-0.13392 -0.60268,-0.62779 v -3.11384 h 1.20954 z m 2.99247,6.54994 c 0.95006,0 1.56529,-0.41434 1.87918,-1.01283 h 0.0502 V 120 h 1.69085 v -4.33594 c 0,-1.53181 -1.29744,-2.17634 -2.7288,-2.17634 -1.54018,0 -2.55301,0.73661 -2.79994,1.90849 l 1.64899,0.13392 c 0.12138,-0.42689 0.50224,-0.74079 1.14258,-0.74079 0.60686,0 0.95424,0.30553 0.95424,0.83287 v 0.0251 c 0,0.41434 -0.43945,0.46875 -1.55692,0.57757 -1.27232,0.11719 -2.4149,0.54408 -2.4149,1.97963 0,1.27232 0.90821,1.91685 2.13449,1.91685 z m 0.5106,-1.23047 c -0.54827,0 -0.94168,-0.2553 -0.94168,-0.74497 0,-0.50224 0.41434,-0.74917 1.04213,-0.83706 0.38923,-0.0544 1.02539,-0.14648 1.23884,-0.28878 v 0.6822 c 0,0.67383 -0.55664,1.18861 -1.33929,1.18861 z M 520.16322,120 h 1.75781 v -1.02958 h 0.0795 c 0.24693,0.53572 0.78683,1.13421 1.82478,1.13421 1.46484,0 2.60742,-1.15932 2.60742,-3.31055 0,-2.20982 -1.1928,-3.30636 -2.60323,-3.30636 -1.07562,0 -1.59041,0.64035 -1.82897,1.16351 h -0.0544 v -3.22266 h -1.78292 z m 1.74526,-3.21429 c 0,-1.14676 0.48549,-1.87918 1.35184,-1.87918 0.88309,0 1.35184,0.7659 1.35184,1.87918 0,1.12166 -0.47712,1.90012 -1.35184,1.90012 -0.85798,0 -1.35184,-0.75335 -1.35184,-1.90012 z m 7.54184,3.33566 c 0.95006,0 1.56529,-0.41434 1.87919,-1.01283 h 0.0502 V 120 h 1.69085 v -4.33594 c 0,-1.53181 -1.29743,-2.17634 -2.72879,-2.17634 -1.54018,0 -2.55302,0.73661 -2.79995,1.90849 l 1.649,0.13392 c 0.12137,-0.42689 0.50223,-0.74079 1.14258,-0.74079 0.60686,0 0.95424,0.30553 0.95424,0.83287 v 0.0251 c 0,0.41434 -0.43946,0.46875 -1.55692,0.57757 -1.27232,0.11719 -2.4149,0.54408 -2.4149,1.97963 0,1.27232 0.9082,1.91685 2.13448,1.91685 z m 0.51061,-1.23047 c -0.54827,0 -0.94169,-0.2553 -0.94169,-0.74497 0,-0.50224 0.41434,-0.74917 1.04213,-0.83706 0.38923,-0.0544 1.02539,-0.14648 1.23884,-0.28878 v 0.6822 c 0,0.67383 -0.55664,1.18861 -1.33928,1.18861 z m 9.84374,-3.48632 c -0.15904,-1.18443 -1.11328,-1.91686 -2.73716,-1.91686 -1.64481,0 -2.72879,0.76172 -2.72461,2.00056 -0.004,0.96261 0.60268,1.58622 1.85826,1.83733 l 1.11328,0.22182 c 0.56083,0.11301 0.81613,0.31808 0.8245,0.64035 -0.008,0.38086 -0.42271,0.6529 -1.04632,0.6529 -0.63616,0 -1.05887,-0.27204 -1.16769,-0.7952 l -1.75363,0.0921 c 0.16742,1.23046 1.21373,1.988 2.91714,1.988 1.66573,0 2.85853,-0.84961 2.86272,-2.11775 -0.004,-0.92913 -0.61105,-1.48577 -1.85826,-1.74107 l -1.1635,-0.23437 c -0.5985,-0.12975 -0.82032,-0.33483 -0.81613,-0.64454 -0.004,-0.38504 0.43108,-0.63616 0.98354,-0.63616 0.61942,0 0.98772,0.33901 1.07561,0.75335 z m 4.20202,4.72098 c 1.5904,0 2.66183,-0.77428 2.91295,-1.96708 l -1.649,-0.10881 c -0.17996,0.48967 -0.64034,0.74497 -1.23465,0.74497 -0.89146,0 -1.45647,-0.59012 -1.45647,-1.54855 v -0.004 h 4.37779 v -0.48968 c 0,-2.18471 -1.32255,-3.26451 -3.02177,-3.26451 -1.89174,0 -3.11802,1.34347 -3.11802,3.32729 0,2.03823 1.20954,3.31055 3.18917,3.31055 z m -1.42717,-3.98856 c 0.0377,-0.73242 0.5943,-1.31836 1.38532,-1.31836 0.77427,0 1.30999,0.55245 1.31417,1.31836 z"
     id="text8"
     style="font-weight:bold;font-size:11.7857px;font-family:Inter;-inkscape-font-specification:'Inter, Bold';text-anchor:middle;fill:#ffffff"
     aria-label="Database" />
  <rect
     x="465"
     y="145"
     width="110"
     height="60"
     rx="8"
     fill="#a855f7"
     stroke="#9333ea"
     stroke-width="1"
     id="rect8" />
  <path
     d="m 479.56823,174.42941 c -0.23856,-1.97963 -1.73689,-3.11803 -3.7207,-3.11803 -2.26423,0 -3.99275,1.59878 -3.99275,4.40291 0,2.79575 1.69922,4.4029 3.99275,4.4029 2.19726,0 3.52399,-1.46066 3.7207,-3.03851 l -1.83315,-0.008 c -0.17159,0.91658 -0.89146,1.44392 -1.85826,1.44392 -1.30162,0 -2.18471,-0.9668 -2.18471,-2.79994 0,-1.78293 0.87054,-2.79995 2.19727,-2.79995 0.99191,0 1.70759,0.57338 1.8457,1.51507 z m 3.05106,-3.00084 h -1.78293 V 180 h 1.78293 z m 3.25613,8.6928 c 0.95005,0 1.56529,-0.41434 1.87918,-1.01283 h 0.0502 V 180 h 1.69085 v -4.33594 c 0,-1.53181 -1.29744,-2.17634 -2.7288,-2.17634 -1.54018,0 -2.55301,0.73661 -2.79994,1.90849 l 1.64899,0.13392 c 0.12137,-0.42689 0.50223,-0.74079 1.14258,-0.74079 0.60686,0 0.95424,0.30553 0.95424,0.83287 v 0.0251 c 0,0.41434 -0.43945,0.46875 -1.55692,0.57757 -1.27232,0.11719 -2.4149,0.54408 -2.4149,1.97963 0,1.27232 0.90821,1.91685 2.13449,1.91685 z m 0.5106,-1.23047 c -0.54827,0 -0.94168,-0.2553 -0.94168,-0.74497 0,-0.50224 0.41434,-0.74917 1.04213,-0.83706 0.38923,-0.0544 1.02539,-0.14648 1.23884,-0.28878 v 0.6822 c 0,0.67383 -0.55664,1.18861 -1.33929,1.18861 z m 8.61747,-1.62807 c 0.004,0.86217 -0.58594,1.31418 -1.22629,1.31418 -0.67383,0 -1.10909,-0.47294 -1.11328,-1.23047 v -3.77511 H 490.881 v 4.09319 c 0.004,1.50251 0.88309,2.41909 2.17634,2.41909 0.96679,0 1.66155,-0.49805 1.95033,-1.2514 h 0.067 V 180 h 1.71178 v -6.42857 h -1.78292 z m 5.57476,2.8418 c 1.03795,0 1.57785,-0.59849 1.82478,-1.13421 h 0.0753 V 180 h 1.75781 v -8.57143 h -1.77874 v 3.22266 h -0.0544 c -0.23856,-0.52316 -0.75335,-1.16351 -1.82896,-1.16351 -1.41044,0 -2.60324,1.09654 -2.60324,3.30636 0,2.15123 1.14258,3.31055 2.60742,3.31055 z m 0.56502,-1.4188 c -0.87473,0 -1.35185,-0.77846 -1.35185,-1.90012 0,-1.11328 0.46875,-1.87918 1.35185,-1.87918 0.86635,0 1.35184,0.73242 1.35184,1.87918 0,1.14677 -0.49387,1.90012 -1.35184,1.90012 z m 7.48325,1.43973 c 1.5904,0 2.66183,-0.77428 2.91295,-1.96708 l -1.649,-0.10881 c -0.17997,0.48967 -0.64035,0.74497 -1.23465,0.74497 -0.89147,0 -1.45648,-0.59012 -1.45648,-1.54855 v -0.004 h 4.37779 v -0.48968 c 0,-2.18471 -1.32254,-3.26451 -3.02176,-3.26451 -1.89174,0 -3.11802,1.34347 -3.11802,3.32729 0,2.03823 1.20954,3.31055 3.18917,3.31055 z m -1.42718,-3.98856 c 0.0377,-0.73242 0.59431,-1.31836 1.38533,-1.31836 0.77427,0 1.30999,0.55245 1.31417,1.31836 z m 9.27456,-5.11021 h -1.536 l -2.76227,10.26227 h 1.53599 z m 8.45843,3.40262 c -0.23856,-1.97963 -1.73689,-3.11803 -3.7207,-3.11803 -2.26423,0 -3.99275,1.59878 -3.99275,4.40291 0,2.79575 1.69922,4.4029 3.99275,4.4029 2.19726,0 3.52399,-1.46066 3.7207,-3.03851 l -1.83315,-0.008 c -0.17159,0.91658 -0.89146,1.44392 -1.85826,1.44392 -1.30161,0 -2.18471,-0.9668 -2.18471,-2.79994 0,-1.78293 0.87054,-2.79995 2.19727,-2.79995 0.99191,0 1.70759,0.57338 1.8457,1.51507 z m 3.05106,1.85407 c 0.004,-0.82868 0.5106,-1.31417 1.23884,-1.31417 0.72405,0 1.15095,0.46456 1.14676,1.25558 V 180 h 1.78292 v -4.09319 c 0.004,-1.5067 -0.88309,-2.41909 -2.22237,-2.41909 -0.97517,0 -1.62807,0.46038 -1.92104,1.21792 h -0.0753 v -3.27707 h -1.7327 V 180 h 1.78293 z m 7.40793,3.83789 c 0.95006,0 1.56529,-0.41434 1.87918,-1.01283 h 0.0502 V 180 h 1.69085 v -4.33594 c 0,-1.53181 -1.29744,-2.17634 -2.7288,-2.17634 -1.54018,0 -2.55301,0.73661 -2.79994,1.90849 l 1.64899,0.13392 c 0.12138,-0.42689 0.50223,-0.74079 1.14258,-0.74079 0.60686,0 0.95424,0.30553 0.95424,0.83287 v 0.0251 c 0,0.41434 -0.43945,0.46875 -1.55692,0.57757 -1.27232,0.11719 -2.4149,0.54408 -2.4149,1.97963 0,1.27232 0.90821,1.91685 2.13449,1.91685 z m 0.5106,-1.23047 c -0.54827,0 -0.94168,-0.2553 -0.94168,-0.74497 0,-0.50224 0.41434,-0.74917 1.04213,-0.83706 0.38923,-0.0544 1.02539,-0.14648 1.23884,-0.28878 v 0.6822 c 0,0.67383 -0.55664,1.18861 -1.33929,1.18861 z m 7.91435,-5.31947 h -1.20955 v -1.54018 h -1.78292 v 1.54018 h -0.87891 v 1.33928 h 0.87891 v 3.34822 c -0.008,1.25976 0.84961,1.88337 2.14286,1.82896 0.46038,-0.0167 0.78683,-0.10882 0.96679,-0.16741 l -0.28041,-1.32673 c -0.0879,0.0167 -0.27623,0.0586 -0.44364,0.0586 -0.35575,0 -0.60268,-0.13392 -0.60268,-0.62779 v -3.11384 h 1.20955 z m 6.87639,0.62779 h 1.84152 c -0.23438,-1.69503 -1.72852,-2.88784 -3.6663,-2.88784 -2.26423,0 -4.00948,1.63226 -4.00948,4.41128 0,2.71205 1.63225,4.39453 4.04715,4.39453 2.16378,0 3.70815,-1.36859 3.70815,-3.62444 v -1.0798 h -3.58678 v 1.36439 h 1.84152 c -0.0251,1.06306 -0.74916,1.73689 -1.95452,1.73689 -1.36021,0 -2.21819,-1.01702 -2.21819,-2.80831 0,-1.78293 0.89146,-2.79158 2.20145,-2.79158 0.93331,0 1.56529,0.48131 1.79548,1.28488 z M 553.9739,180 h 1.81222 v -2.77902 h 1.52344 c 1.97126,0 3.11802,-1.17606 3.11802,-2.88783 0,-1.70341 -1.12583,-2.90458 -3.07198,-2.90458 h -3.3817 z m 1.81222,-4.23131 v -2.85853 h 1.2221 c 1.04632,0 1.55274,0.56919 1.55274,1.42299 0,0.84961 -0.50642,1.43554 -1.54437,1.43554 z m 5.49527,-2.84598 h 2.62416 V 180 h 1.79129 v -7.07729 h 2.62417 v -1.49414 h -7.03962 z"
     id="text9"
     style="font-weight:bold;font-size:11.7857px;font-family:Inter;-inkscape-font-specification:'Inter, Bold';text-anchor:middle;fill:#ffffff"
     aria-label="Claude/ChatGPT" />
  <rect
     x="585"
     y="75"
     width="110"
     height="60"
     rx="8"
     fill="#c084fc"
     stroke="#a855f7"
     stroke-width="1"
     id="rect9" />
  <path
     d="m 621.89453,96.428572 v 5.976558 c -0.004,0.8245 -0.37249,1.25977 -1.04213,1.25977 -0.63198,0 -1.04213,-0.39342 -1.05469,-1.07561 h -1.80385 c -0.008,1.71177 1.21373,2.5279 2.76646,2.5279 1.73689,0 2.92132,-1.0505 2.92551,-2.71206 v -5.976558 z m 7.37445,5.834258 c 0.004,0.86217 -0.58594,1.31418 -1.22629,1.31418 -0.67382,0 -1.10909,-0.47294 -1.11328,-1.23047 v -3.775111 h -1.78292 v 4.093191 c 0.004,1.50251 0.88309,2.41909 2.17634,2.41909 0.96679,0 1.66155,-0.49805 1.95033,-1.2514 h 0.067 V 105 h 1.71177 v -6.428571 h -1.78292 z m 3.20591,5.14788 h 1.78292 v -3.44029 h 0.0544 c 0.24693,0.53572 0.78683,1.13421 1.82477,1.13421 1.46485,0 2.60743,-1.15932 2.60743,-3.31055 0,-2.209817 -1.19281,-3.306357 -2.60324,-3.306357 -1.07561,0 -1.5904,0.640346 -1.82896,1.163505 h -0.0795 v -1.079799 h -1.75781 z m 1.74525,-5.625 c 0,-1.14676 0.48549,-1.879181 1.35184,-1.879181 0.88309,0 1.35184,0.765901 1.35184,1.879181 0,1.12166 -0.47712,1.90012 -1.35184,1.90012 -0.85798,0 -1.35184,-0.75335 -1.35184,-1.90012 z m 6.59599,5.625 c 1.32673,0 2.02986,-0.67801 2.39398,-1.71596 l 2.4986,-7.123321 h -1.88755 l -1.34348,4.720981 h -0.067 l -1.33092,-4.720981 h -1.875 l 2.30609,6.612721 -0.10463,0.27204 c -0.23438,0.60268 -0.6822,0.63198 -1.30999,0.43946 l -0.40179,1.33091 c 0.2553,0.10882 0.66964,0.18415 1.12165,0.18415 z m 9.22433,-8.839281 h -1.20954 V 97.03125 H 647.048 v 1.540179 h -0.87891 v 1.339285 h 0.87891 v 3.348216 c -0.008,1.25976 0.84961,1.88337 2.14285,1.82896 0.46038,-0.0167 0.78684,-0.10882 0.9668,-0.16741 l -0.28041,-1.32673 c -0.0879,0.0167 -0.27623,0.0586 -0.44364,0.0586 -0.35575,0 -0.60268,-0.13392 -0.60268,-0.62779 v -3.113836 h 1.20954 z m 4.02205,6.554131 c 1.5904,0 2.66183,-0.77428 2.91294,-1.96708 l -1.64899,-0.10881 c -0.17997,0.48967 -0.64035,0.74497 -1.23466,0.74497 -0.89146,0 -1.45647,-0.59012 -1.45647,-1.54855 v -0.004 h 4.37779 v -0.48968 c 0,-2.184708 -1.32254,-3.264507 -3.02176,-3.264507 -1.89174,0 -3.11803,1.343471 -3.11803,3.327287 0,2.03823 1.20955,3.31055 3.18918,3.31055 z m -1.42718,-3.98856 c 0.0377,-0.73242 0.59431,-1.318362 1.38532,-1.318362 0.77428,0 1.30999,0.552452 1.31418,1.318362 z m 5.54129,3.863 h 1.78293 v -3.637 c 0,-0.79101 0.57756,-1.3351 1.36439,-1.3351 0.24694,0 0.58594,0.0418 0.75335,0.0963 v -1.582028 c -0.15904,-0.03767 -0.38086,-0.06278 -0.56082,-0.06278 -0.71987,0 -1.30999,0.418527 -1.54437,1.213727 h -0.067 v -1.121651 h -1.72852 z"
     id="text10"
     style="font-weight:bold;font-size:11.7857px;font-family:Inter;-inkscape-font-specification:'Inter, Bold';text-anchor:middle;fill:#ffffff"
     aria-label="Jupyter" />
  <path
     d="m 619.78517,111.42857 h -1.80385 v 5.39063 h -0.0753 l -3.69977,-5.39063 H 612.6158 V 120 h 1.81222 v -5.39481 h 0.0628 L 618.21988,120 h 1.56529 z m 4.36522,8.69699 c 1.95034,0 3.16407,-1.3351 3.16407,-3.31473 0,-1.99219 -1.21373,-3.32311 -3.16407,-3.32311 -1.95033,0 -3.16406,1.33092 -3.16406,3.32311 0,1.97963 1.21373,3.31473 3.16406,3.31473 z m 0.008,-1.38114 c -0.89983,0 -1.36021,-0.8245 -1.36021,-1.94615 0,-1.12165 0.46038,-1.95033 1.36021,-1.95033 0.8831,0 1.34348,0.82868 1.34348,1.95033 0,1.12165 -0.46038,1.94615 -1.34348,1.94615 z m 7.73856,-5.17299 h -1.20954 v -1.54018 h -1.78293 v 1.54018 h -0.8789 v 1.33928 h 0.8789 v 3.34822 c -0.008,1.25976 0.84961,1.88337 2.14286,1.82896 0.46038,-0.0167 0.78683,-0.10882 0.9668,-0.16741 l -0.28042,-1.32673 c -0.0879,0.0167 -0.27622,0.0586 -0.44363,0.0586 -0.35575,0 -0.60268,-0.13392 -0.60268,-0.62779 v -3.11384 h 1.20954 z m 4.02204,6.55413 c 1.5904,0 2.66183,-0.77428 2.91295,-1.96708 l -1.649,-0.10881 c -0.17996,0.48967 -0.64034,0.74497 -1.23465,0.74497 -0.89146,0 -1.45647,-0.59012 -1.45647,-1.54855 v -0.004 h 4.37779 v -0.48968 c 0,-2.18471 -1.32255,-3.26451 -3.02177,-3.26451 -1.89174,0 -3.11802,1.34347 -3.11802,3.32729 0,2.03823 1.20954,3.31055 3.18917,3.31055 z m -1.42717,-3.98856 c 0.0377,-0.73242 0.5943,-1.31836 1.38532,-1.31836 0.77427,0 1.30999,0.55245 1.31417,1.31836 z m 5.57477,3.863 h 1.75781 v -1.02958 h 0.0795 c 0.24693,0.53572 0.78683,1.13421 1.82477,1.13421 1.46485,0 2.60742,-1.15932 2.60742,-3.31055 0,-2.20982 -1.1928,-3.30636 -2.60323,-3.30636 -1.07562,0 -1.5904,0.64035 -1.82896,1.16351 h -0.0544 v -3.22266 h -1.78293 z m 1.74526,-3.21429 c 0,-1.14676 0.48549,-1.87918 1.35184,-1.87918 0.88309,0 1.35184,0.7659 1.35184,1.87918 0,1.12166 -0.47712,1.90012 -1.35184,1.90012 -0.85798,0 -1.35184,-0.75335 -1.35184,-1.90012 z m 8.61328,3.33985 c 1.95033,0 3.16406,-1.3351 3.16406,-3.31473 0,-1.99219 -1.21373,-3.32311 -3.16406,-3.32311 -1.95034,0 -3.16407,1.33092 -3.16407,3.32311 0,1.97963 1.21373,3.31473 3.16407,3.31473 z m 0.008,-1.38114 c -0.89984,0 -1.36022,-0.8245 -1.36022,-1.94615 0,-1.12165 0.46038,-1.95033 1.36022,-1.95033 0.88309,0 1.34347,0.82868 1.34347,1.95033 0,1.12165 -0.46038,1.94615 -1.34347,1.94615 z m 7.22376,1.38114 c 1.95034,0 3.16406,-1.3351 3.16406,-3.31473 0,-1.99219 -1.21372,-3.32311 -3.16406,-3.32311 -1.95033,0 -3.16406,1.33092 -3.16406,3.32311 0,1.97963 1.21373,3.31473 3.16406,3.31473 z m 0.008,-1.38114 c -0.89983,0 -1.36021,-0.8245 -1.36021,-1.94615 0,-1.12165 0.46038,-1.95033 1.36021,-1.95033 0.88309,0 1.34347,0.82868 1.34347,1.95033 0,1.12165 -0.46038,1.94615 -1.34347,1.94615 z M 661.9852,120 h 1.78292 v -2.04241 l 0.48131,-0.54827 1.75362,2.59068 h 2.08845 l -2.50697,-3.64537 2.3856,-2.7832 h -2.0466 l -2.05915,2.44001 h -0.0963 v -4.58287 h -1.78292 z"
     id="text11"
     style="font-weight:bold;font-size:11.7857px;font-family:Inter;-inkscape-font-specification:'Inter, Bold';text-anchor:middle;fill:#ffffff"
     aria-label="Notebook" />
  <rect
     x="585"
     y="145"
     width="110"
     height="60"
     rx="8"
     fill="#d946ef"
     stroke="#c026d3"
     stroke-width="1"
     id="rect11" />
  <path
     d="m 625.655,169.42941 c -0.23856,-1.97963 -1.73689,-3.11803 -3.72071,-3.11803 -2.26423,0 -3.99274,1.59878 -3.99274,4.40291 0,2.79575 1.69922,4.4029 3.99274,4.4029 2.19727,0 3.524,-1.46066 3.72071,-3.03851 l -1.83315,-0.008 c -0.1716,0.91658 -0.89146,1.44392 -1.85826,1.44392 -1.30162,0 -2.18471,-0.9668 -2.18471,-2.79994 0,-1.78293 0.87054,-2.79995 2.19727,-2.79995 0.9919,0 1.70759,0.57338 1.8457,1.51507 z m 5.39062,2.83342 c 0.004,0.86217 -0.58594,1.31418 -1.22628,1.31418 -0.67383,0 -1.1091,-0.47294 -1.11329,-1.23047 v -3.77511 h -1.78292 v 4.09319 c 0.004,1.50251 0.88309,2.41909 2.17634,2.41909 0.9668,0 1.66155,-0.49805 1.95033,-1.2514 h 0.067 V 175 h 1.71177 v -6.42857 h -1.78292 z m 8.55468,-1.85825 c -0.15904,-1.18443 -1.11328,-1.91686 -2.73717,-1.91686 -1.64481,0 -2.72879,0.76172 -2.72461,2.00056 -0.004,0.96261 0.60268,1.58622 1.85826,1.83733 l 1.11328,0.22182 c 0.56083,0.11301 0.81613,0.31808 0.8245,0.64035 -0.008,0.38086 -0.42271,0.6529 -1.04631,0.6529 -0.63617,0 -1.05888,-0.27204 -1.16769,-0.7952 l -1.75363,0.0921 c 0.16741,1.23046 1.21373,1.988 2.91713,1.988 1.66574,0 2.85854,-0.84961 2.86272,-2.11775 -0.004,-0.92913 -0.61105,-1.48577 -1.85826,-1.74107 l -1.1635,-0.23437 c -0.59849,-0.12975 -0.82031,-0.33483 -0.81613,-0.64454 -0.004,-0.38504 0.43109,-0.63616 0.98354,-0.63616 0.61942,0 0.98772,0.33901 1.07561,0.75335 z m 4.69169,-1.83315 h -1.20954 v -1.54018 h -1.78292 v 1.54018 h -0.87891 v 1.33928 h 0.87891 v 3.34822 c -0.008,1.25976 0.8496,1.88337 2.14285,1.82896 0.46038,-0.0167 0.78683,-0.10882 0.9668,-0.16741 l -0.28041,-1.32673 c -0.0879,0.0167 -0.27623,0.0586 -0.44364,0.0586 -0.35575,0 -0.60268,-0.13392 -0.60268,-0.62779 v -3.11384 h 1.20954 z m 3.99693,6.55413 c 1.95034,0 3.16406,-1.3351 3.16406,-3.31473 0,-1.99219 -1.21372,-3.32311 -3.16406,-3.32311 -1.95033,0 -3.16406,1.33092 -3.16406,3.32311 0,1.97963 1.21373,3.31473 3.16406,3.31473 z m 0.008,-1.38114 c -0.89983,0 -1.36021,-0.8245 -1.36021,-1.94615 0,-1.12165 0.46038,-1.95033 1.36021,-1.95033 0.88309,0 1.34347,0.82868 1.34347,1.95033 0,1.12165 -0.46038,1.94615 -1.34347,1.94615 z M 652.61649,175 h 1.78292 v -3.85882 c 0,-0.71149 0.45201,-1.18443 1.04632,-1.18443 0.58593,0 0.97935,0.40179 0.97935,1.03376 V 175 h 1.72852 v -3.92578 c 0,-0.66546 0.38085,-1.11747 1.02957,-1.11747 0.5692,0 0.9961,0.35575 0.9961,1.07143 V 175 h 1.77873 v -4.32338 c 0,-1.3937 -0.82868,-2.1889 -2.02567,-2.1889 -0.94168,0 -1.6741,0.48131 -1.93777,1.21792 h -0.067 c -0.20508,-0.74498 -0.86216,-1.21792 -1.74526,-1.21792 -0.86635,0 -1.52343,0.46038 -1.79129,1.21792 h -0.0753 v -1.13421 h -1.69921 z"
     id="text12"
     style="font-weight:bold;font-size:11.7857px;font-family:Inter;-inkscape-font-specification:'Inter, Bold';text-anchor:middle;fill:#ffffff"
     aria-label="Custom" />
  <path
     d="m 624.8033,182.92271 h 2.62416 V 190 h 1.7913 v -7.07729 h 2.62416 v -1.49414 h -7.03962 z m 10.13671,7.20285 c 1.95033,0 3.16406,-1.3351 3.16406,-3.31473 0,-1.99219 -1.21373,-3.32311 -3.16406,-3.32311 -1.95034,0 -3.16406,1.33092 -3.16406,3.32311 0,1.97963 1.21372,3.31473 3.16406,3.31473 z m 0.008,-1.38114 c -0.89983,0 -1.36021,-0.8245 -1.36021,-1.94615 0,-1.12165 0.46038,-1.95033 1.36021,-1.95033 0.88309,0 1.34347,0.82868 1.34347,1.95033 0,1.12165 -0.46038,1.94615 -1.34347,1.94615 z m 7.22377,1.38114 c 1.95033,0 3.16406,-1.3351 3.16406,-3.31473 0,-1.99219 -1.21373,-3.32311 -3.16406,-3.32311 -1.95034,0 -3.16406,1.33092 -3.16406,3.32311 0,1.97963 1.21372,3.31473 3.16406,3.31473 z m 0.008,-1.38114 c -0.89983,0 -1.36021,-0.8245 -1.36021,-1.94615 0,-1.12165 0.46038,-1.95033 1.36021,-1.95033 0.88309,0 1.34347,0.82868 1.34347,1.95033 0,1.12165 -0.46038,1.94615 -1.34347,1.94615 z m 6.10211,-7.31585 h -1.78292 V 190 h 1.78292 z m 6.77176,3.97601 c -0.15904,-1.18443 -1.11328,-1.91686 -2.73716,-1.91686 -1.64481,0 -2.7288,0.76172 -2.72461,2.00056 -0.004,0.96261 0.60268,1.58622 1.85826,1.83733 l 1.11328,0.22182 c 0.56082,0.11301 0.81612,0.31808 0.8245,0.64035 -0.008,0.38086 -0.42272,0.6529 -1.04632,0.6529 -0.63616,0 -1.05887,-0.27204 -1.16769,-0.7952 l -1.75363,0.0921 c 0.16741,1.23046 1.21373,1.988 2.91713,1.988 1.66574,0 2.85854,-0.84961 2.86273,-2.11775 -0.004,-0.92913 -0.61105,-1.48577 -1.85826,-1.74107 l -1.16351,-0.23437 c -0.59849,-0.12975 -0.82031,-0.33483 -0.81612,-0.64454 -0.004,-0.38504 0.43108,-0.63616 0.98353,-0.63616 0.61942,0 0.98773,0.33901 1.07562,0.75335 z"
     id="text13"
     style="font-weight:bold;font-size:11.7857px;font-family:Inter;-inkscape-font-specification:'Inter, Bold';text-anchor:middle;fill:#ffffff"
     aria-label="Tools" />
  <path
     d="m 705,140 q 30,0 60,0"
     stroke="#9ca3af"
     stroke-width="2"
     fill="none"
     marker-end="url(#arrowhead)"
     id="path13" />
  <rect
     x="775"
     y="100"
     width="120"
     height="80"
     rx="12"
     fill="#f59e0b"
     stroke="#d97706"
     stroke-width="1"
     id="rect13" />
  <path
     d="m 810.01186,143.91016 0.63616,-1.95452 h 3.09291 l 0.63616,1.95452 h 1.94197 l -2.9548,-8.57143 h -2.33538 l -2.95898,8.57143 z m 1.09654,-3.36914 1.05469,-3.24359 h 0.067 l 1.05469,3.24359 z m 7.98968,-0.34738 c 0.004,-0.82868 0.49805,-1.31418 1.21791,-1.31418 0.71568,0 1.14676,0.46875 1.14258,1.25558 v 3.77512 h 1.78292 v -4.0932 c 0,-1.49832 -0.8789,-2.41908 -2.21819,-2.41908 -0.95424,0 -1.64481,0.46875 -1.93359,1.21791 h -0.0753 v -1.13421 h -1.69922 v 6.42858 h 1.78293 z m 7.37862,3.83789 c 0.95005,0 1.56529,-0.41434 1.87918,-1.01284 h 0.0502 v 0.89147 h 1.69084 v -4.33594 c 0,-1.53181 -1.29743,-2.17634 -2.72879,-2.17634 -1.54018,0 -2.55301,0.73661 -2.79995,1.90848 l 1.649,0.13393 c 0.12137,-0.4269 0.50223,-0.74079 1.14258,-0.74079 0.60686,0 0.95424,0.30552 0.95424,0.83287 v 0.0251 c 0,0.41434 -0.43945,0.46875 -1.55692,0.57756 -1.27232,0.11719 -2.4149,0.54409 -2.4149,1.97964 0,1.27232 0.9082,1.91685 2.13449,1.91685 z m 0.5106,-1.23047 c -0.54827,0 -0.94169,-0.2553 -0.94169,-0.74498 0,-0.50223 0.41435,-0.74916 1.04214,-0.83705 0.38923,-0.0544 1.02539,-0.14649 1.23884,-0.28878 v 0.68219 c 0,0.67383 -0.55665,1.18862 -1.33929,1.18862 z m 6.2779,-7.46233 h -1.78292 v 8.57143 h 1.78292 z m 2.52371,10.98214 c 1.32673,0 2.02986,-0.67801 2.39397,-1.71596 l 2.49861,-7.12333 h -1.88756 l -1.34347,4.72099 h -0.067 l -1.33092,-4.72099 h -1.875 l 2.30609,6.61273 -0.10464,0.27204 c -0.23437,0.60268 -0.6822,0.63198 -1.30999,0.43945 l -0.40178,1.33092 c 0.2553,0.10882 0.66964,0.18415 1.12165,0.18415 z m 9.22433,-8.83929 h -1.20954 v -1.54017 h -1.78292 v 1.54017 h -0.87891 v 1.33929 h 0.87891 v 3.34821 c -0.008,1.25977 0.8496,1.88338 2.14285,1.82897 0.46038,-0.0167 0.78683,-0.10882 0.9668,-0.16741 l -0.28041,-1.32673 c -0.0879,0.0167 -0.27623,0.0586 -0.44364,0.0586 -0.35575,0 -0.60268,-0.13393 -0.60268,-0.62779 v -3.11384 h 1.20954 z m 1.15932,6.42858 h 1.78292 v -6.42858 h -1.78292 z m 0.89565,-7.25726 c 0.53153,0 0.96679,-0.40597 0.96679,-0.90402 0,-0.49386 -0.43526,-0.89983 -0.96679,-0.89983 -0.52735,0 -0.96261,0.40597 -0.96261,0.89983 0,0.49805 0.43526,0.90402 0.96261,0.90402 z m 5.21484,7.38281 c 1.71177,0 2.78738,-1.00446 2.87109,-2.48186 h -1.68248 c -0.10463,0.68638 -0.55664,1.07143 -1.16769,1.07143 -0.83287,0 -1.37277,-0.69894 -1.37277,-1.92941 0,-1.21373 0.54409,-1.90848 1.37277,-1.90848 0.6529,0 1.07143,0.43108 1.16769,1.07143 h 1.68248 c -0.0753,-1.48577 -1.20117,-2.46094 -2.87946,-2.46094 -1.95034,0 -3.1557,1.35184 -3.1557,3.3231 0,1.95452 1.18443,3.31473 3.16407,3.31473 z m 9.36663,-4.72098 c -0.15904,-1.18443 -1.11328,-1.91685 -2.73716,-1.91685 -1.64481,0 -2.7288,0.76172 -2.72461,2.00056 -0.004,0.96261 0.60268,1.58621 1.85826,1.83733 l 1.11328,0.22182 c 0.56082,0.113 0.81612,0.31808 0.8245,0.64035 -0.008,0.38085 -0.42272,0.6529 -1.04632,0.6529 -0.63616,0 -1.05887,-0.27205 -1.16769,-0.7952 l -1.75363,0.0921 c 0.16741,1.23047 1.21373,1.988 2.91713,1.988 1.66574,0 2.85854,-0.84961 2.86273,-2.11774 -0.004,-0.92913 -0.61105,-1.48577 -1.85826,-1.74107 l -1.16351,-0.23438 c -0.59849,-0.12974 -0.82031,-0.33482 -0.81612,-0.64453 -0.004,-0.38504 0.43108,-0.63616 0.98353,-0.63616 0.61942,0 0.98773,0.33901 1.07562,0.75335 z"
     id="text14"
     style="font-weight:bold;font-size:11.7857px;font-family:Inter;-inkscape-font-specification:'Inter, Bold';text-anchor:middle;fill:#ffffff"
     aria-label="Analytics" />
  <!-- Arrow marker definition -->
  <defs
     id="defs15">
    <marker
       id="arrowhead"
       markerWidth="10"
       markerHeight="7"
       refX="9"
       refY="3.5"
       orient="auto">
      <polygon
         points="0 0, 10 3.5, 0 7"
         fill="#9CA3AF"
         id="polygon15" />
    </marker>
  </defs>
</svg>
