<?xml version="1.0" encoding="UTF-8" standalone="no"?>
<!-- Created with Inkscape (http://www.inkscape.org/) -->

<svg
   width="25.129539mm"
   height="25.129539mm"
   viewBox="0 0 25.12954 25.129539"
   version="1.1"
   id="svg848"
   xmlns="http://www.w3.org/2000/svg"
   xmlns:svg="http://www.w3.org/2000/svg">
  <defs
     id="defs845" />
  <rect
     style="fill:#ffffff;fill-opacity:1;stroke-width:3;stroke-linecap:round;stroke-miterlimit:1000;paint-order:fill markers stroke"
     id="rect1"
     width="25.129539"
     height="25.129539"
     x="0"
     y="0" />
  <path
     style="fill:none;fill-opacity:1;stroke:#1e293b;stroke-width:1.88391;stroke-linecap:round;stroke-linejoin:round;stroke-miterlimit:4;stroke-dasharray:none;stroke-opacity:1;stop-color:#000000"
     id="path1390"
     d="m 18.311576,16.59614 a 7.5955715,7.5955715 0 0 1 -7.87931,5.01408 7.5955715,7.5955715 0 0 1 -6.7854702,-6.41731 7.5955715,7.5955715 0 0 1 4.5672,-8.1464868" />
  <path
     style="fill:none;fill-opacity:1;stroke:#1e293b;stroke-width:1.88391;stroke-linecap:round;stroke-miterlimit:4;stroke-dasharray:none;stroke-opacity:1;stop-color:#000000"
     id="path1392"
     d="m 14.819216,16.84301 a 4.6071973,4.6072307 0 0 1 -4.72364,1.68984 4.6071973,4.6072307 0 0 1 -3.4666202,-3.626449 4.6071973,4.6072307 0 0 1 1.90084,-4.642786" />
  <path
     style="color:#000000;fill:#285ae9;fill-opacity:1;stroke-width:0.209322;stroke-linecap:round"
     d="m 10.108826,6.4536502 a 1.0466146,1.0466146 0 0 0 1.04662,1.046603 c 3.62927,0 6.54869,2.9198308 6.54869,6.5491068 a 1.0466146,1.0466146 0 0 0 1.04662,1.04662 1.0466146,1.0466146 0 0 0 1.04662,-1.04662 c 0,-4.7605378 -3.8814,-8.6423288 -8.64193,-8.6423288 a 1.0466146,1.0466146 0 0 0 -1.04662,1.046619 z"
     id="path1396" />
  <path
     style="color:#000000;fill:#285ae9;fill-opacity:1;stroke:none;stroke-width:0.209322;stroke-linecap:round"
     d="m 10.108826,9.4418062 a 1.0466146,1.0466146 0 0 0 1.04662,1.0466188 c 1.97887,0 3.56054,1.582081 3.56054,3.560935 a 1.0466146,1.0466146 0 0 0 1.0466,1.04662 1.0466146,1.0466146 0 0 0 1.04662,-1.04662 c 0,-3.110116 -2.54363,-5.6541568 -5.65376,-5.6541568 a 1.0466146,1.0466146 0 0 0 -1.04662,1.046603 z"
     id="path3724" />
  <path
     style="color:#000000;fill:#285ae9;fill-opacity:1;stroke-width:0.209322;stroke-linecap:round"
     d="m 10.132006,3.5892952 a 1.0466146,1.0466146 0 0 0 1.04662,1.046619 c 5.12366,0 9.23963,4.065307 9.23963,9.0887778 a 1.0466146,1.0466146 0 0 0 1.04662,1.046619 1.0466146,1.0466146 0 0 0 1.04662,-1.046619 c 0,-6.1715928 -5.09458,-11.1819998 -11.33287,-11.1819998 a 1.0466146,1.0466146 0 0 0 -1.04662,1.046603 z"
     id="path1402" />
  <circle
     style="fill:#285ae9;fill-opacity:1;stroke:none;stroke-width:2.43769;stroke-linecap:round;stroke-miterlimit:4;stroke-dasharray:none;stroke-opacity:1;stop-color:#000000"
     id="circle1404"
     cx="7.523057"
     cy="16.284752"
     r="2.302552"
     transform="rotate(-13.659358)" />
</svg>
